<svg width="164" height="164" viewBox="0 0 164 164" fill="none" xmlns="http://www.w3.org/2000/svg">
<g filter="url(#filter0_d_3235_425)">
<rect x="50" y="26" width="64" height="64" rx="24" fill="#DC0155"/>
<path d="M89.9999 51.5C89.9999 47.09 86.4099 43.5 81.9999 43.5C77.5899 43.5 73.9999 47.09 73.9999 51.5C73.9999 55.91 77.5899 59.5 81.9999 59.5C86.4099 59.5 89.9999 55.91 89.9999 51.5ZM76.9999 51.5C76.9999 48.74 79.2399 46.5 81.9999 46.5C84.7599 46.5 86.9999 48.74 86.9999 51.5C86.9999 54.26 84.7599 56.5 81.9999 56.5C79.2399 56.5 76.9999 54.26 76.9999 51.5ZM84.3999 61.5H79.5999C74.3599 61.5 70.0999 65.76 70.0999 71C70.0999 71.83 70.7699 72.5 71.5999 72.5H92.3999C93.2299 72.5 93.8999 71.83 93.8999 71C93.8999 65.76 89.6399 61.5 84.3999 61.5ZM73.2699 69.5C73.9499 66.64 76.5299 64.5 79.5999 64.5H84.3999C87.4699 64.5 90.0499 66.64 90.7299 69.5H73.2699Z" fill="#F4F3F8"/>
</g>
<defs>
<filter id="filter0_d_3235_425" x="0" y="0" width="164" height="164" filterUnits="userSpaceOnUse" color-interpolation-filters="sRGB">
<feFlood flood-opacity="0" result="BackgroundImageFix"/>
<feColorMatrix in="SourceAlpha" type="matrix" values="0 0 0 0 0 0 0 0 0 0 0 0 0 0 0 0 0 0 127 0" result="hardAlpha"/>
<feOffset dy="24"/>
<feGaussianBlur stdDeviation="25"/>
<feComposite in2="hardAlpha" operator="out"/>
<feColorMatrix type="matrix" values="0 0 0 0 0.0509804 0 0 0 0 0.0470588 0 0 0 0 0.219608 0 0 0 0.15 0"/>
<feBlend mode="normal" in2="BackgroundImageFix" result="effect1_dropShadow_3235_425"/>
<feBlend mode="normal" in="SourceGraphic" in2="effect1_dropShadow_3235_425" result="shape"/>
</filter>
</defs>
</svg>
