<svg width="164" height="164" viewBox="0 0 164 164" fill="none" xmlns="http://www.w3.org/2000/svg">
<g filter="url(#filter0_d_3235_433)">
<rect x="50" y="26" width="64" height="64" rx="24" fill="#DC0155"/>
<path d="M68.6667 56.6667H76.6667C77.0203 56.6667 77.3594 56.5262 77.6095 56.2761C77.8595 56.0261 78 55.687 78 55.3333V47.3333C78 46.9797 77.8595 46.6406 77.6095 46.3905C77.3594 46.1405 77.0203 46 76.6667 46H68.6667C68.313 46 67.9739 46.1405 67.7239 46.3905C67.4738 46.6406 67.3333 46.9797 67.3333 47.3333V55.3333C67.3333 55.687 67.4738 56.0261 67.7239 56.2761C67.9739 56.5262 68.313 56.6667 68.6667 56.6667ZM70 48.6667H75.3333V54H70V48.6667ZM95.3333 50H82C81.6464 50 81.3072 50.1405 81.0572 50.3905C80.8071 50.6406 80.6667 50.9797 80.6667 51.3333C80.6667 51.687 80.8071 52.0261 81.0572 52.2761C81.3072 52.5262 81.6464 52.6667 82 52.6667H95.3333C95.687 52.6667 96.0261 52.5262 96.2761 52.2761C96.5262 52.0261 96.6667 51.687 96.6667 51.3333C96.6667 50.9797 96.5262 50.6406 96.2761 50.3905C96.0261 50.1405 95.687 50 95.3333 50ZM95.3333 63.3333H82C81.6464 63.3333 81.3072 63.4738 81.0572 63.7239C80.8071 63.9739 80.6667 64.313 80.6667 64.6667C80.6667 65.0203 80.8071 65.3594 81.0572 65.6095C81.3072 65.8595 81.6464 66 82 66H95.3333C95.687 66 96.0261 65.8595 96.2761 65.6095C96.5262 65.3594 96.6667 65.0203 96.6667 64.6667C96.6667 64.313 96.5262 63.9739 96.2761 63.7239C96.0261 63.4738 95.687 63.3333 95.3333 63.3333ZM71.256 68.6667H71.272C71.6216 68.6655 71.9568 68.5272 72.2053 68.2813L77.6 62.948C77.7384 62.8289 77.8509 62.6826 77.9304 62.5182C78.01 62.3538 78.0549 62.1749 78.0625 61.9924C78.07 61.81 78.04 61.6279 77.9742 61.4575C77.9085 61.2872 77.8085 61.1321 77.6804 61.002C77.5523 60.8718 77.3988 60.7694 77.2295 60.701C77.0601 60.6327 76.8786 60.5998 76.696 60.6045C76.5135 60.6092 76.3338 60.6513 76.1682 60.7283C76.0026 60.8053 75.8546 60.9155 75.7333 61.052L71.2947 65.4373L69.6253 63.704C69.5036 63.5781 69.3582 63.4774 69.1975 63.4077C69.0368 63.338 68.864 63.3006 68.6888 63.2977C68.3351 63.2919 67.9936 63.4267 67.7393 63.6727C67.4851 63.9186 67.3389 64.2555 67.3331 64.6092C67.3272 64.9629 67.4621 65.3044 67.708 65.5587L70.3133 68.2667C70.4363 68.3922 70.583 68.4921 70.7447 68.5608C70.9065 68.6294 71.0803 68.6654 71.256 68.6667Z" fill="#F4F3F8"/>
</g>
<defs>
<filter id="filter0_d_3235_433" x="0" y="0" width="164" height="164" filterUnits="userSpaceOnUse" color-interpolation-filters="sRGB">
<feFlood flood-opacity="0" result="BackgroundImageFix"/>
<feColorMatrix in="SourceAlpha" type="matrix" values="0 0 0 0 0 0 0 0 0 0 0 0 0 0 0 0 0 0 127 0" result="hardAlpha"/>
<feOffset dy="24"/>
<feGaussianBlur stdDeviation="25"/>
<feComposite in2="hardAlpha" operator="out"/>
<feColorMatrix type="matrix" values="0 0 0 0 0.0509804 0 0 0 0 0.0470588 0 0 0 0 0.219608 0 0 0 0.15 0"/>
<feBlend mode="normal" in2="BackgroundImageFix" result="effect1_dropShadow_3235_433"/>
<feBlend mode="normal" in="SourceGraphic" in2="effect1_dropShadow_3235_433" result="shape"/>
</filter>
</defs>
</svg>
