<svg width="32" height="32" viewBox="0 0 32 32" fill="none" xmlns="http://www.w3.org/2000/svg">
<path d="M23.9999 9.5C23.9999 5.09 20.4099 1.5 15.9999 1.5C11.5899 1.5 7.99995 5.09 7.99995 9.5C7.99995 13.91 11.5899 17.5 15.9999 17.5C20.4099 17.5 23.9999 13.91 23.9999 9.5ZM10.9999 9.5C10.9999 6.74 13.2399 4.5 15.9999 4.5C18.7599 4.5 20.9999 6.74 20.9999 9.5C20.9999 12.26 18.7599 14.5 15.9999 14.5C13.2399 14.5 10.9999 12.26 10.9999 9.5ZM18.3999 19.5H13.5999C8.35995 19.5 4.09995 23.76 4.09995 29C4.09995 29.83 4.76995 30.5 5.59995 30.5H26.3999C27.2299 30.5 27.8999 29.83 27.8999 29C27.8999 23.76 23.6399 19.5 18.3999 19.5ZM7.26995 27.5C7.94995 24.64 10.5299 22.5 13.5999 22.5H18.3999C21.4699 22.5 24.0499 24.64 24.7299 27.5H7.26995Z" fill="#F4F3F8"/>
</svg>
