<svg width="64" height="64" viewBox="0 0 64 64" fill="none" xmlns="http://www.w3.org/2000/svg">
<path fill-rule="evenodd" clip-rule="evenodd" d="M20 36H8C5.79 36 4 37.79 4 40V56C4 58.21 5.79 60 8 60H20C22.21 60 24 58.21 24 56V40C24 37.79 22.21 36 20 36ZM34 20C32.408 20 30.882 20.632 29.758 21.758C28.632 22.882 28 24.408 28 26C28 32.926 28 47.074 28 54C28 55.592 28.632 57.118 29.758 58.242C30.882 59.368 32.408 60 34 60H44.344C45.934 60 47.46 59.368 48.586 58.242L58.242 48.586C59.368 47.46 60 45.934 60 44.344V26C60 22.686 57.314 20 54 20H34ZM8 40V56H20V40H8ZM56 44V26C56 24.896 55.104 24 54 24H34C33.47 24 32.96 24.21 32.586 24.586C32.21 24.96 32 25.47 32 26V54C32 54.53 32.21 55.04 32.586 55.414C32.96 55.79 33.47 56 34 56H44V50C44 46.686 46.686 44 50 44H56ZM53.172 48H50C48.896 48 48 48.896 48 50V53.172L53.172 48ZM12 46V50C12 51.104 12.896 52 14 52C15.104 52 16 51.104 16 50V46C16 44.896 15.104 44 14 44C12.896 44 12 44.896 12 46ZM38 40H46C47.104 40 48 39.104 48 38C48 36.896 47.104 36 46 36H38C36.896 36 36 36.896 36 38C36 39.104 36.896 40 38 40ZM38 32H50C51.104 32 52 31.104 52 30C52 28.896 51.104 28 50 28H38C36.896 28 36 28.896 36 30C36 31.104 36.896 32 38 32ZM20 4H8C6.94 4 5.922 4.422 5.172 5.172C4.422 5.922 4 6.94 4 8C4 12.52 4 23.48 4 28C4 29.06 4.422 30.078 5.172 30.828C5.922 31.578 6.94 32 8 32H20C21.06 32 22.078 31.578 22.828 30.828C23.578 30.078 24 29.06 24 28C24 23.48 24 12.52 24 8C24 6.94 23.578 5.922 22.828 5.172C22.078 4.422 21.06 4 20 4ZM18.392 8H8V28H18.392L12.968 22.038C10.886 19.748 10.886 16.252 12.968 13.962L18.392 8ZM20 12.178L15.928 16.654C15.234 17.418 15.234 18.582 15.928 19.346L20 23.822V12.178ZM56 4H36.43C35.862 4 35.302 4.12 34.784 4.354L30.356 6.354C28.922 7.002 28.002 8.428 28.002 10C28.002 11.572 28.922 12.998 30.356 13.646L34.784 15.646C35.302 15.88 35.862 16 36.43 16H56C58.21 16 60 14.21 60 12V8C60 5.79 58.21 4 56 4ZM32.002 10L36.43 12H56V8H36.43L32.002 10Z" fill="#DC0155"/>
</svg>
