<svg width="32" height="33" viewBox="0 0 32 33" fill="none" xmlns="http://www.w3.org/2000/svg">
<path d="M2.66667 15.1667H10.6667C11.0203 15.1667 11.3594 15.0262 11.6095 14.7761C11.8595 14.5261 12 14.187 12 13.8333V5.83333C12 5.47971 11.8595 5.14057 11.6095 4.89052C11.3594 4.64048 11.0203 4.5 10.6667 4.5H2.66667C2.31305 4.5 1.97391 4.64048 1.72386 4.89052C1.47381 5.14057 1.33334 5.47971 1.33334 5.83333V13.8333C1.33334 14.187 1.47381 14.5261 1.72386 14.7761C1.97391 15.0262 2.31305 15.1667 2.66667 15.1667ZM4 7.16667H9.33334V12.5H4V7.16667ZM29.3333 8.5H16C15.6464 8.5 15.3072 8.64048 15.0572 8.89052C14.8071 9.14057 14.6667 9.47971 14.6667 9.83333C14.6667 10.187 14.8071 10.5261 15.0572 10.7761C15.3072 11.0262 15.6464 11.1667 16 11.1667H29.3333C29.687 11.1667 30.0261 11.0262 30.2761 10.7761C30.5262 10.5261 30.6667 10.187 30.6667 9.83333C30.6667 9.47971 30.5262 9.14057 30.2761 8.89052C30.0261 8.64048 29.687 8.5 29.3333 8.5ZM29.3333 21.8333H16C15.6464 21.8333 15.3072 21.9738 15.0572 22.2239C14.8071 22.4739 14.6667 22.813 14.6667 23.1667C14.6667 23.5203 14.8071 23.8594 15.0572 24.1095C15.3072 24.3595 15.6464 24.5 16 24.5H29.3333C29.687 24.5 30.0261 24.3595 30.2761 24.1095C30.5262 23.8594 30.6667 23.5203 30.6667 23.1667C30.6667 22.813 30.5262 22.4739 30.2761 22.2239C30.0261 21.9738 29.687 21.8333 29.3333 21.8333ZM5.256 27.1667H5.272C5.6216 27.1655 5.95677 27.0272 6.20534 26.7813L11.6 21.448C11.7384 21.3289 11.8509 21.1826 11.9304 21.0182C12.01 20.8538 12.0549 20.6749 12.0625 20.4924C12.07 20.31 12.04 20.1279 11.9742 19.9575C11.9085 19.7872 11.8085 19.6321 11.6804 19.502C11.5523 19.3718 11.3988 19.2694 11.2295 19.201C11.0601 19.1327 10.8786 19.0998 10.696 19.1045C10.5135 19.1092 10.3338 19.1513 10.1682 19.2283C10.0026 19.3053 9.8546 19.4155 9.73334 19.552L5.29467 23.9373L3.62534 22.204C3.50356 22.0781 3.35817 21.9774 3.19749 21.9077C3.0368 21.838 2.86396 21.8006 2.68883 21.7977C2.33513 21.7919 1.99359 21.9267 1.73934 22.1727C1.48508 22.4186 1.33894 22.7555 1.33307 23.1092C1.32719 23.4629 1.46206 23.8044 1.708 24.0587L4.31334 26.7667C4.43635 26.8922 4.58296 26.9921 4.74474 27.0608C4.90652 27.1294 5.08027 27.1654 5.256 27.1667Z" fill="#F4F3F8"/>
</svg>
