<svg width="64" height="64" viewBox="0 0 64 64" fill="none" xmlns="http://www.w3.org/2000/svg">
<path fill-rule="evenodd" clip-rule="evenodd" d="M22 8H16C14.408 8 12.882 8.632 11.758 9.758C10.632 10.882 10 12.408 10 14C10 23.04 10 44.96 10 54C10 55.592 10.632 57.118 11.758 58.242C12.882 59.368 14.408 60 16 60C23.664 60 40.336 60 48 60C49.592 60 51.118 59.368 52.242 58.242C53.368 57.118 54 55.592 54 54C54 44.96 54 23.04 54 14C54 12.408 53.368 10.882 52.242 9.758C51.118 8.632 49.592 8 48 8H42C42 6.94 41.578 5.922 40.828 5.172C40.078 4.422 39.06 4 38 4H26C24.94 4 23.922 4.422 23.172 5.172C22.422 5.922 22 6.94 22 8ZM42 12V24.72C42 26.108 41.282 27.394 40.102 28.124C38.924 28.852 37.452 28.918 36.212 28.298L32 26.194L27.788 28.298C26.548 28.918 25.076 28.852 23.898 28.124C22.718 27.394 22 26.108 22 24.72V12H16C15.47 12 14.96 12.21 14.586 12.586C14.21 12.96 14 13.47 14 14V54C14 54.53 14.21 55.04 14.586 55.414C14.96 55.79 15.47 56 16 56H48C48.53 56 49.04 55.79 49.414 55.414C49.79 55.04 50 54.53 50 54V14C50 13.47 49.79 12.96 49.414 12.586C49.04 12.21 48.53 12 48 12H42ZM24 50H36C37.104 50 38 49.104 38 48C38 46.896 37.104 46 36 46H24C22.896 46 22 46.896 22 48C22 49.104 22.896 50 24 50ZM24 42H40C41.104 42 42 41.104 42 40C42 38.896 41.104 38 40 38H24C22.896 38 22 38.896 22 40C22 41.104 22.896 42 24 42ZM38 8V24.72L32.894 22.168C32.332 21.886 31.668 21.886 31.106 22.168L26 24.72V8H38Z" fill="#DC0155"/>
</svg>
