<svg width="64" height="64" viewBox="0 0 64 64" fill="none" xmlns="http://www.w3.org/2000/svg">
<path d="M58.586 17.758L56.242 15.414C53.984 13.154 50.016 13.154 47.758 15.414L38.586 24.586L26.586 36.586C26.21 36.96 26 37.47 26 38V46C26 47.104 26.896 48 28 48H36C36.532 48 37.04 47.79 37.414 47.414L49.414 35.414L58.586 26.242C60.924 23.904 60.924 20.096 58.586 17.758ZM30 44V38.828L35.172 44H30ZM46.586 32.586L38 41.172L32.828 36L41.414 27.414L46 22.828L51.172 28L46.586 32.586ZM55.758 23.414L54 25.172L48.828 20L50.586 18.242C51.336 17.492 52.664 17.492 53.414 18.242L55.758 20.586C56.538 21.366 56.538 22.634 55.758 23.414Z" fill="#DC0155"/>
<path d="M50 40C48.894 40 48 40.896 48 42V56C48 57.102 47.104 58 46 58H18C16.898 58 16 57.102 16 56V8C16 6.898 16.898 6 18 6H46C47.104 6 48 6.898 48 8C48 9.104 48.894 10 50 10C51.106 10 52 9.104 52 8C52 4.692 49.308 2 46 2H18C14.692 2 12 4.692 12 8V56C12 59.308 14.692 62 18 62H46C49.308 62 52 59.308 52 56V42C52 40.896 51.106 40 50 40Z" fill="#DC0155"/>
<path d="M26 8C24.896 8 24 8.896 24 10C24 11.104 24.896 12 26 12H38C39.106 12 40 11.104 40 10C40 8.896 39.106 8 38 8H26ZM34 56C35.106 56 36 55.104 36 54C36 52.896 35.106 52 34 52H30C28.896 52 28 52.896 28 54C28 55.104 28.896 56 30 56H34Z" fill="#DC0155"/>
</svg>
