<svg width="79" height="27" viewBox="0 0 79 27" fill="none" xmlns="http://www.w3.org/2000/svg">
<path d="M5.524 22.004H13.804V26H0.484V0.872H5.524V22.004ZM35.8354 6.056V26H30.7594V23.48C30.1114 24.344 29.2594 25.028 28.2034 25.532C27.1714 26.012 26.0434 26.252 24.8194 26.252C23.2594 26.252 21.8794 25.928 20.6794 25.28C19.4794 24.608 18.5314 23.636 17.8354 22.364C17.1634 21.068 16.8274 19.532 16.8274 17.756V6.056H21.8674V17.036C21.8674 18.62 22.2634 19.844 23.0554 20.708C23.8474 21.548 24.9274 21.968 26.2954 21.968C27.6874 21.968 28.7794 21.548 29.5714 20.708C30.3634 19.844 30.7594 18.62 30.7594 17.036V6.056H35.8354ZM51.8242 26L47.7202 19.808L44.0842 26H38.6842L45.2002 15.992L38.6122 6.056H44.3002L48.3682 12.212L52.0402 6.056H57.4402L50.8882 15.992L57.5122 26H51.8242ZM78.7896 15.596C78.7896 16.316 78.7416 16.964 78.6456 17.54H64.0656C64.1856 18.98 64.6896 20.108 65.5776 20.924C66.4656 21.74 67.5576 22.148 68.8536 22.148C70.7256 22.148 72.0576 21.344 72.8496 19.736H78.2856C77.7096 21.656 76.6056 23.24 74.9736 24.488C73.3416 25.712 71.3376 26.324 68.9616 26.324C67.0416 26.324 65.3136 25.904 63.7776 25.064C62.2656 24.2 61.0776 22.988 60.2136 21.428C59.3736 19.868 58.9536 18.068 58.9536 16.028C58.9536 13.964 59.3736 12.152 60.2136 10.592C61.0536 9.032 62.2296 7.832 63.7416 6.992C65.2536 6.152 66.9936 5.732 68.9616 5.732C70.8576 5.732 72.5496 6.14 74.0376 6.956C75.5496 7.772 76.7136 8.936 77.5296 10.448C78.3696 11.936 78.7896 13.652 78.7896 15.596ZM73.5696 14.156C73.5456 12.86 73.0776 11.828 72.1656 11.06C71.2536 10.268 70.1376 9.872 68.8176 9.872C67.5696 9.872 66.5136 10.256 65.6496 11.024C64.8096 11.768 64.2936 12.812 64.1016 14.156H73.5696Z" fill="#DC0155"/>
</svg>
